<?xml version="1.0" encoding="UTF-8"?>
<svg xmlns="http://www.w3.org/2000/svg" version="1.1" viewBox="0 0 24 24">
  <defs>
    <style>
      .cls-1 {
        fill: #1f1f1f;
      }
    </style>
  </defs>
  <!-- Generator: Adobe Illustrator 28.7.1, SVG Export Plug-In . SVG Version: 1.2.0 Build 142)  -->
  <g>
    <g id="Layer_1">
      <polygon class="cls-1" points="2 6 2 1 7 1 7 3 4 3 4 6 2 6"/>
      <polygon class="cls-1" points="20 6 20 3 17 3 17 1 22 1 22 6 20 6"/>
      <polygon class="cls-1" points="2 23 2 18 4 18 4 21 7 21 7 23 2 23"/>
      <polygon class="cls-1" points="17 23 17 21 20 21 20 18 22 18 22 23 17 23"/>
      <g>
        <rect class="cls-1" x="7" y="7" width="10" height="2"/>
        <rect class="cls-1" x="7" y="11" width="10" height="2"/>
        <rect class="cls-1" x="7" y="15" width="10" height="2"/>
      </g>
    </g>
  </g>
</svg>