<?xml version="1.0" encoding="UTF-8"?>
<svg xmlns="http://www.w3.org/2000/svg" version="1.1" viewBox="0 0 24 24">
  <defs>
    <style>
      .cls-1 {
        fill: #1f1f1f;
      }
    </style>
  </defs>
  <!-- Generator: Adobe Illustrator 28.7.1, SVG Export Plug-In . SVG Version: 1.2.0 Build 142)  -->
  <g>
    <g id="Layer_1">
      <path class="cls-1" d="M4,23c-.5,0-1-.2-1.4-.6s-.6-.9-.6-1.4v-12h2v12h12v2H4Z"/>
      <g>
        <polygon class="cls-1" points="6 7 6 2 11 2 11 4 8 4 8 7 6 7"/>
        <polygon class="cls-1" points="20 7 20 4 17 4 17 2 22 2 22 7 20 7"/>
        <polygon class="cls-1" points="17 19 17 17 20 17 20 14 22 14 22 19 17 19"/>
        <polygon class="cls-1" points="8 14 8 17 11 17 11 19 6 19 6 14 8 14"/>
      </g>
      <g>
        <rect class="cls-1" x="11" y="9.5" width="6" height="2"/>
        <rect class="cls-1" x="11" y="12.5" width="6" height="2"/>
        <rect class="cls-1" x="11" y="6.5" width="6" height="2"/>
      </g>
    </g>
  </g>
</svg>