<?xml version="1.0" encoding="UTF-8" standalone="no"?>
<svg
   shape-rendering="geometricPrecision"
   text-rendering="geometricPrecision"
   image-rendering="optimizeQuality"
   fill-rule="evenodd"
   clip-rule="evenodd"
   viewBox="0 0 512 345.41"
   version="1.1"
   id="svg12"
   width="512px"
   height="512px"
   sodipodi:docname="ontology.svg"
   inkscape:version="1.2.1 (9c6d41e410, 2022-07-14)"
   xmlns:inkscape="http://www.inkscape.org/namespaces/inkscape"
   xmlns:sodipodi="http://sodipodi.sourceforge.net/DTD/sodipodi-0.dtd"
   xmlns="http://www.w3.org/2000/svg"
   xmlns:svg="http://www.w3.org/2000/svg">
  <sodipodi:namedview
     id="namedview1487"
     pagecolor="#b6b63e"
     bordercolor="#000000"
     borderopacity="0.25"
     inkscape:showpageshadow="2"
     inkscape:pageopacity="0"
     inkscape:pagecheckerboard="true"
     inkscape:deskcolor="#c7dbc7"
     showgrid="false"
     inkscape:zoom="1.4183568"
     inkscape:cx="-225.26067"
     inkscape:cy="328.54921"
     inkscape:window-width="2560"
     inkscape:window-height="1369"
     inkscape:window-x="-8"
     inkscape:window-y="-8"
     inkscape:window-maximized="1"
     inkscape:current-layer="svg12"
     showborder="true" />
  <defs
     id="defs16" />
  <circle
     style="fill:#ffffff;stroke:#ffffff;stroke-width:2.49093"
     id="path1658"
     cx="256.76648"
     cy="172.93559"
     r="254.22916" />
  <path
     d="m 420.32742,19.981002 -0.84572,-0.315549 c -10.15653,-3.655786 -20.83419,-2.870958 -29.92255,1.37876 A 39.588324,40.124348 12.302642 0 0 368.8445,43.691198 c -3.83416,10.415501 -3.14506,21.398898 1.06982,30.730092 l -0.0146,0.0081 a 39.585539,40.121524 12.302642 0 0 21.81841,20.652085 l 0.85213,0.317811 c 10.13879,3.645417 20.81967,2.847897 29.93566,-1.412074 l 0.007,0.01473 a 39.579967,40.115879 12.302642 0 0 20.52035,-22.198225 l 0.3213,-0.872936 C 447.01735,60.631656 446.3011,49.834397 442.15559,40.66028 A 39.574398,40.110232 12.302642 0 0 420.32744,19.980989 Z M 192.20569,112.70447 c 6.55663,-9.34896 14.43085,-17.185322 23.17777,-23.449944 L 202.16832,66.598263 c -12.17311,4.624997 -25.93543,5.037958 -39.00755,0.168112 -14.48485,-5.396102 -25.41435,-16.2506 -31.37121,-29.436606 l -0.22335,-0.546782 c -5.73912,-13.075181 -6.62119,-28.3543926 -1.28939,-42.8302407 5.41151,-14.6948253 16.19622,-25.8191873 29.25553,-31.9232783 l 0.54087,-0.228392 c 12.9486,-5.883053 28.04653,-6.862074 42.31812,-1.545884 14.48259,5.394481 25.41435,16.2506 31.37121,29.436604 l 0.22334,0.5467845 c 5.73786,13.0754144 6.62118,28.3543825 1.28885,42.8310105 a 55.728937,56.483503 12.302642 0 1 -17.92522,24.893271 l 13.09005,22.440842 c 30.46169,-14.35977 67.37289,-12.305135 96.63283,8.64093 4.73215,3.387575 9.06806,7.127849 12.99896,11.163736 L 356.4419,86.401501 a 57.786438,58.568862 12.302642 0 1 -2.32526,-4.589954 l -0.028,-0.02008 c -6.06055,-13.417288 -7.05205,-29.207964 -1.54019,-44.182023 5.505,-14.951272 16.48499,-26.273081 29.77867,-32.4877247 13.31537,-6.2245328 28.92618,-7.3272412 43.67304,-1.8348212 l 0.0554,0.021725 c 14.7109,5.4966913 25.81282,16.5347039 31.8711,29.9422889 6.07321,13.441382 7.07404,29.239863 1.56829,44.198675 l -0.0645,0.166382 c -5.52355,14.867547 -16.46926,26.130751 -29.71274,32.322421 l -0.02,0.0284 c -13.29022,6.21135 -28.89067,7.30415 -43.65135,1.80876 l -0.10955,-0.0416 A 56.748403,57.516773 12.302642 0 1 367.22863,100.1443 l -16.162,13.63276 c 21.9589,32.75802 22.71789,77.30702 -1.37756,111.66419 -27.46518,39.16198 -78.00355,51.93797 -119.41553,32.68001 l -21.34109,39.32194 c 7.24738,5.3394 13.3157,12.53497 17.43605,21.29612 a 8.6301768,8.7470287 12.302642 0 1 0.73755,1.63321 55.845926,56.602075 12.302642 0 1 1.17194,42.56025 c -4.94298,13.41912 -14.87198,24.99552 -28.64573,31.6322 a 8.8530107,8.97288 12.302642 0 1 -1.42638,0.64199 c -13.87449,6.2181 -28.89121,6.31978 -42.04469,1.42172 -13.22889,-4.92662 -24.61145,-14.91474 -31.08894,-28.8199 -0.20849,-0.38488 -0.39143,-0.78838 -0.54292,-1.20751 -6.16012,-14.04986 -6.19978,-29.34739 -1.25003,-42.7859 4.94488,-13.43161 14.89528,-25.0158 28.70457,-31.64323 l 0.54965,-0.27983 c 13.40638,-6.26679 27.97258,-6.74525 40.93558,-2.44896 l 21.74534,-40.0702 -0.39265,-0.27301 c -19.88562,-14.23531 -32.79266,-34.7319 -37.98135,-57.0127 l -45.50159,5.00113 a 56.754902,57.52336 12.302642 0 1 -3.61102,20.24532 l -0.0415,0.11114 c -5.51898,14.89506 -16.47558,26.17702 -29.736552,32.37583 -13.312776,6.22407 -28.925641,7.32647 -43.670012,1.837 l -0.110309,-0.0419 C 39.486086,246.11237 28.40112,235.0842 22.350529,221.6948 c -6.073218,-13.44135 -7.075777,-29.24221 -1.567657,-44.20282 5.504446,-14.95052 16.483907,-26.27153 29.77758,-32.48619 13.314077,-6.2243 28.927696,-7.32615 43.673576,-1.83558 14.738212,5.48853 25.861112,16.54039 31.925902,29.96301 a 57.615598,58.395709 12.302642 0 1 2.49338,6.53278 l 45.7261,-5.0263 c -1.09503,-21.29633 4.64515,-43.14039 17.82637,-61.93518 z m -81.81554,67.83904 A 39.592967,40.129053 12.302642 0 0 88.134035,159.70052 c -10.282416,-3.8279 -21.12881,-3.07956 -30.34163,1.22772 a 39.586468,40.122464 12.302642 0 0 -20.714099,22.64622 c -3.840102,10.43204 -3.161793,21.40655 1.041833,30.71006 a 39.588324,40.124348 12.302642 0 0 21.830203,20.67902 l 0.852656,0.31703 a 39.502905,40.037771 12.302642 0 0 29.914653,-1.38207 39.577183,40.113055 12.302642 0 0 20.549409,-22.21209 l 0.3198,-0.86593 c 3.66461,-10.30013 2.94901,-21.10154 -1.19671,-30.27697 z M 217.93687,-2.9379829 A 38.498294,39.019559 12.302642 0 0 196.29165,-23.213172 c -9.85219,-3.670081 -20.23667,-3.022993 -29.11294,0.993977 l -0.45476,0.228795 A 38.494581,39.015795 12.302642 0 0 146.57289,0.03446509 C 142.8922,10.02858 143.47381,20.536587 147.39177,29.500452 l 0.22346,0.459098 a 38.498294,39.019559 12.302642 0 0 21.64601,20.275737 c 9.85144,3.669535 20.2359,3.022436 29.11216,-0.994524 l 0.45477,-0.228796 a 38.497367,39.018617 12.302642 0 0 20.15104,-22.024866 c 3.67996,-9.994661 3.0991,-20.5021213 -0.81885,-29.4659841 z M 191.83121,378.87397 c 9.69395,-4.52992 16.68567,-12.61809 20.14996,-22.02333 3.46583,-9.41227 3.40402,-20.12677 -1.01392,-29.90242 l -0.0156,-0.0331 c -4.43012,-9.78094 -12.38343,-16.80834 -21.66019,-20.26514 -9.26687,-3.45314 -19.85724,-3.3161 -29.56717,1.222 l -0.43916,0.19033 c -9.4628,4.57301 -16.29585,12.56456 -19.7104,21.83566 -3.46312,9.40033 -3.38706,20.12042 1.04215,29.92379 l 0.0126,0.0275 c 4.4229,9.77345 12.36576,16.79796 21.63216,20.24849 9.27859,3.45579 19.86446,3.3317 29.54514,-1.19385 z m 53.53414,-267.39545 c -1.57126,0.59256 -2.82549,1.64533 -3.48423,3.14523 -0.67147,1.48727 -0.77775,3.11008 -0.21383,4.68946 l 3.05774,8.87474 c -3.43519,2.05775 -6.99126,5.27625 -9.73967,8.20677 l -9.051,-4.38311 c -1.54749,-0.71165 -3.06731,-0.74979 -4.58273,-0.2628 -1.56111,0.58133 -2.67487,1.6088 -3.39184,3.19173 l -5.41492,11.57411 c -0.65968,1.49804 -0.79063,2.97611 -0.28494,4.63857 0.56445,1.57861 1.52633,2.7915 3.07783,3.52337 l 8.2934,3.9678 c -0.91772,4.0955 -1.22432,8.59155 -0.97933,12.7791 l -9.61595,3.59716 c -1.56261,0.58027 -2.75863,1.54999 -3.41778,3.04725 -0.65915,1.49727 -0.76623,3.11951 -0.20174,4.69815 l 4.16223,11.88859 c 0.56447,1.57861 1.59746,2.84242 3.07489,3.50163 1.54925,0.73023 3.06929,0.7697 4.63999,0.1779 l 8.77682,-3.13303 c 2.00655,3.42405 5.19652,7.06463 8.05185,9.81315 l -4.37304,9.17629 c -0.71847,1.58183 -0.76464,3.12061 -0.29206,4.65195 0.565,1.57784 1.58216,2.68597 3.13269,3.41599 l 11.40384,5.41602 c 1.47692,0.65996 2.93636,0.78424 4.58067,0.2625 1.57473,-0.57161 2.77829,-1.55211 3.49731,-3.13472 l 3.96661,-8.41854 c 4.20074,0.93061 8.42676,1.11707 12.71383,0.98805 l 3.40508,9.64656 c 0.56447,1.57862 1.52557,2.79097 2.99039,3.44229 1.4754,0.65888 3.07736,0.75819 4.63997,0.17791 l 11.91013,-4.30508 a 5.8011129,5.8796597 12.302642 0 0 3.4047,-3.18252 c 0.65917,-1.49727 0.84867,-3.0605 0.35182,-4.73391 l -3.14904,-8.92278 c 3.46969,-2.10695 6.94332,-5.25976 9.75965,-8.21095 l 9.03943,4.37366 c 1.5515,0.73186 3.07079,0.77079 4.5741,0.27511 1.56996,-0.59233 2.68349,-1.62111 3.40123,-3.20347 l 5.41414,-11.57468 c 0.65992,-1.4967 0.78202,-2.9638 0.28495,-4.63856 -0.56391,-1.5794 -1.51572,-2.78392 -3.07305,-3.50262 l -8.28584,-3.97856 c 0.94717,-4.29152 1.12461,-8.50124 1.02654,-12.87235 l 9.55586,-3.51312 c 1.56337,-0.57973 2.75863,-1.55 3.47786,-3.1313 0.73004,-1.5724 0.777,-3.11063 0.20173,-4.69815 l -4.18613,-12.03273 c -0.56447,-1.57864 -1.66887,-2.76652 -3.13369,-3.41783 -1.4673,-0.67043 -3.01049,-0.85352 -4.66693,-0.34041 l -8.74776,3.29585 c -2.00812,-3.42513 -5.19991,-7.0647 -8.05447,-9.81269 l 4.37302,-9.17629 c 0.71848,-1.58183 0.76624,-3.11951 0.29359,-4.65087 -0.56447,-1.57863 -1.57506,-2.69935 -3.13367,-3.41781 l -11.40331,-5.41683 c -1.47648,-0.65734 -2.93741,-0.7827 -4.58174,-0.26094 -1.5755,0.57104 -2.77829,1.5521 -3.49677,3.13394 l -3.9664,8.41986 c -4.22063,-0.85362 -8.31519,-1.20003 -12.61925,-0.92037 l -3.49934,-9.71633 c -0.56446,-1.57862 -1.52633,-2.79152 -2.99146,-3.44074 -1.47539,-0.65891 -3.07736,-0.75819 -4.65284,-0.18713 l -11.75549,4.28874 z m 3.56427,41.82093 c 8.51408,-12.14003 25.09878,-15.04943 37.04226,-6.49954 11.94427,8.55043 14.72547,25.32314 6.21142,37.46317 -8.51248,12.13774 -25.09719,15.04713 -37.04144,6.49671 -11.94349,-8.54991 -14.7247,-25.32263 -6.21224,-37.46034 z"
     id="path10"
     style="stroke-width:0.934745" />
  <ellipse
     style="display:none;stroke:#000000;stroke-width:1.8"
     id="path1671"
     cx="182.46544"
     cy="12.175304"
     rx="44.37001"
     ry="42.625122" />
  <ellipse
     style="display:none;stroke:#000000;stroke-width:1.8"
     id="path1671-9"
     cx="405.31256"
     cy="57.293121"
     rx="44.37001"
     ry="42.625122" />
  <ellipse
     style="display:none;stroke:#000000;stroke-width:1.8"
     id="path1671-3"
     cx="71.789673"
     cy="196.88417"
     rx="44.37001"
     ry="42.625122" />
  <ellipse
     style="display:none;stroke:#000000;stroke-width:1.8"
     id="path1671-91"
     cx="176.98149"
     cy="341.4606"
     rx="44.37001"
     ry="42.625122" />
  <path
     style="fill:#4cc2f1;fill-opacity:1;stroke:#000000;stroke-width:1"
     d="m 278.89815,313.34949 c -1.55176,-0.81862 -2.3875,-2.43887 -4.64533,-9.00585 l -1.35314,-3.93563 -3.67969,-0.0171 c -2.02382,-0.009 -4.93701,-0.20091 -6.47374,-0.42561 -1.53673,-0.2247 -2.84358,-0.3496 -2.90411,-0.27754 -0.0605,0.0721 -1.13969,2.28424 -2.39814,4.91597 -2.76318,5.77853 -3.52445,6.50387 -6.80184,6.48081 -1.91118,-0.0135 -2.69222,-0.29321 -8.10024,-2.90144 -6.75454,-3.25764 -7.68428,-3.85375 -8.51934,-5.46229 -1.08648,-2.09281 -0.78963,-3.61496 1.75496,-8.99914 1.29257,-2.73501 2.35014,-5.16038 2.35014,-5.38972 0,-0.22934 -1.09053,-1.56503 -2.4234,-2.9682 -1.33287,-1.40316 -3.10908,-3.52349 -3.94713,-4.71184 -0.83804,-1.18836 -1.7038,-2.16064 -1.92389,-2.16064 -0.22009,0 -2.21145,0.6534 -4.42524,1.452 -5.22946,1.88647 -6.09869,2.0765 -7.60093,1.66171 -2.64171,-0.72941 -3.429,-1.96756 -6.11597,-9.61837 -1.35857,-3.86839 -2.47013,-7.50655 -2.47013,-8.0848 0,-1.34194 1.18762,-3.75165 2.20837,-4.48082 0.43343,-0.30962 2.37439,-1.15771 4.31326,-1.88465 8.15109,-3.0561 7.25408,-2.5436 7.02084,-4.01127 -0.17951,-1.12961 0.17175,-6.06428 0.74472,-10.46213 l 0.18371,-1.41008 -4.81792,-2.29138 c -4.06357,-1.93262 -4.9599,-2.50516 -5.72466,-3.6567 -1.63119,-2.45619 -1.34041,-3.96448 2.21737,-11.50169 3.13545,-6.64248 3.87346,-7.79372 5.55811,-8.67025 2.00092,-1.04107 3.7403,-0.66118 9.10137,1.9878 l 5.02532,2.48308 2.86005,-2.76325 c 2.36787,-2.28772 3.66145,-3.34257 6.86252,-5.59602 0.0686,-0.0483 -0.60559,-2.27919 -1.49821,-4.95754 -2.34946,-7.04959 -2.11697,-9.1221 1.26261,-11.25554 1.91215,-1.20708 13.40248,-5.42278 14.78037,-5.42278 1.50536,0 3.21324,0.80845 4.2068,1.99134 0.47566,0.5663 1.71357,3.42225 2.75092,6.34654 l 1.88607,5.3169 5.16434,0.22427 c 2.84038,0.12335 5.76033,0.32052 6.48876,0.43814 l 1.32442,0.21387 2.23999,-4.72538 c 2.40765,-5.07905 3.5363,-6.42908 5.71686,-6.83815 2.06366,-0.38715 3.21606,9.2e-4 10.19302,3.43248 5.51172,2.7109 6.84389,3.51281 7.52226,4.52813 1.36272,2.03957 0.97605,4.16264 -1.82146,10.00083 l -2.34281,4.88929 2.49565,2.67232 c 1.3726,1.46977 3.20879,3.67169 4.08041,4.89316 0.87162,1.22146 1.76913,2.22049 1.99447,2.22005 0.22534,-3.5e-4 2.31332,-0.73485 4.63995,-1.63203 5.98501,-2.30791 8.41868,-2.15434 10.50763,0.66302 0.95623,1.28967 5.53206,14.26816 5.53206,15.69066 0,1.42329 -1.39106,3.96153 -2.561,4.67301 -0.58007,0.35276 -3.33451,1.46823 -6.12099,2.47882 l -5.06631,1.83742 -0.0221,3.92025 c -0.0122,2.15613 -0.21068,5.11 -0.44113,6.56414 l -0.41901,2.64391 4.93577,2.46764 c 5.70985,2.85464 6.52212,3.68216 6.52212,6.64448 0,1.47142 -0.46559,2.79579 -2.67721,7.61519 -3.67404,8.00625 -4.05397,8.613 -5.97569,9.54329 -2.23056,1.07979 -3.45042,0.80983 -9.12923,-2.02037 l -4.72407,-2.35438 -2.93585,2.64866 c -1.61472,1.45677 -3.848,3.33088 -4.96285,4.16469 -1.11485,0.83381 -2.02406,1.69525 -2.02048,1.91432 0.004,0.21906 0.71743,2.38095 1.58634,4.80419 2.11667,5.90305 2.03328,8.00514 -0.40852,10.29793 -1.25287,1.17642 -14.10473,5.92629 -15.97204,5.90305 -0.68859,-0.009 -1.86206,-0.33743 -2.60772,-0.7308 z m -1.29781,-35.23069 c 4.55185,-1.26321 7.89115,-3.25618 11.46665,-6.84356 3.5249,-3.5366 5.11724,-5.97179 6.54721,-10.01269 4.99347,-14.11098 -1.86661,-29.33012 -15.53657,-34.46795 -14.13697,-5.31335 -29.85394,2.12815 -34.72157,16.4396 -5.48649,16.13094 4.46657,32.89985 21.14953,35.63271 2.67789,0.43867 8.14721,0.0699 11.09475,-0.74811 z"
     id="path5637"
     transform="translate(0,-83.295)" />
  <path
     style="fill:#4cc2f1;fill-opacity:1;stroke:#000000;stroke-width:0.634537"
     d="m 176.19187,135.21987 c -15.28197,-2.91125 -26.86743,-13.8265 -30.80071,-29.01892 -1.01608,-3.92464 -1.28413,-11.298657 -0.56098,-15.432366 2.25482,-12.889058 9.92316,-23.182258 21.55955,-28.939346 5.8531,-2.895813 9.61199,-3.764634 16.39221,-3.788858 4.50017,-0.01608 6.01175,0.117321 8.56871,0.756201 7.66217,1.914462 13.70747,5.406828 19.1296,11.051156 4.50215,4.686654 7.82868,10.637528 9.574,17.127084 0.83405,3.10118 0.92708,4.065176 0.92801,9.615828 0.001,5.635001 -0.0826,6.474311 -0.96545,9.694321 -1.88852,6.88825 -5.47182,13.1606 -10.27323,17.98266 -4.92464,4.94581 -11.32201,8.60535 -18.14863,10.38171 -3.83219,0.99718 -11.64448,1.28655 -15.40308,0.57053 z"
     id="path5639"
     transform="translate(0,-83.295)" />
  <path
     style="fill:#4cc2f1;fill-opacity:1;stroke:#000000;stroke-width:0.634537"
     d="m 69.094041,320.39634 c -16.023193,-2.00146 -29.760321,-14.61762 -33.34542,-30.62439 -5.4234,-24.21444 12.406056,-47.83136 36.920656,-48.90514 5.304162,-0.23233 9.008509,0.2712 13.874534,1.88597 10.474614,3.47595 18.690219,10.76545 23.458909,20.81452 4.66989,9.84086 4.87497,22.19262 0.54132,32.60253 -6.7921,16.31533 -24.046881,26.40033 -41.449999,24.22651 z"
     id="path5641"
     transform="translate(0,-83.295)" />
  <path
     style="fill:#4cc2f1;fill-opacity:1;stroke:#000000;stroke-width:0.634537"
     d="m 172.20632,465.49435 c -0.29083,-0.057 -1.71854,-0.29701 -3.17268,-0.5334 -7.88784,-1.28224 -15.41159,-5.39897 -21.29264,-11.65056 -4.47807,-4.76022 -7.43547,-10.2424 -9.28748,-17.21638 -0.76515,-2.88128 -0.90104,-4.17422 -0.92905,-8.83902 -0.0198,-3.29579 0.14928,-6.30341 0.42605,-7.5792 3.37969,-15.57877 14.10745,-26.94761 29.14425,-30.88588 2.73399,-0.71606 3.97696,-0.82868 8.98928,-0.81451 5.16867,0.0146 6.20926,0.12183 9.34179,0.96258 13.69507,3.67565 23.99432,14.19189 27.72617,28.31032 0.72414,2.7396 0.82522,3.90637 0.80577,9.30164 -0.02,5.54729 -0.11785,6.52444 -0.97081,9.69432 -3.49769,12.99843 -13.10659,23.24728 -25.78642,27.50376 -4.2255,1.41845 -12.02896,2.32729 -14.99423,1.74633 z"
     id="path5643"
     transform="translate(0,-83.295)" />
  <path
     style="fill:#4cc2f1;fill-opacity:1;stroke:#000000;stroke-width:0.634537"
     d="m 400.46342,180.45231 c -8.46505,-1.21984 -16.53468,-5.38487 -22.56991,-11.64914 -4.77309,-4.95422 -7.34928,-9.20226 -9.35568,-15.42714 -1.16071,-3.60111 -2.08785,-8.93225 -2.08958,-12.01526 -0.007,-12.79606 6.68246,-25.88439 16.91792,-33.10014 16.10591,-11.354283 37.07595,-9.485613 50.76297,4.52356 5.04483,5.16356 8.26145,10.86287 10.29282,18.23709 0.65306,2.37072 0.76174,3.7056 0.77004,9.45819 0.009,6.18137 -0.0633,6.96669 -0.93587,10.18363 -1.93116,7.11927 -6.27909,14.45026 -11.45201,19.3091 -8.70535,8.17676 -20.90056,12.12866 -32.3407,10.48011 z"
     id="path5645"
     transform="translate(0,-83.295)" />
</svg>
